<svg xmlns="http://www.w3.org/2000/svg" width="728" height="74.991" viewBox="0 0 728 74.991">
  <g id="Group_3" data-name="Group 3" transform="translate(-153 -770.009)">
    <g id="Ellipse_6" data-name="Ellipse 6" transform="translate(497 772)" fill="#fff" stroke="#c5c5c5" stroke-width="5">
      <ellipse cx="18.5" cy="19" rx="18.5" ry="19" stroke="none"/>
      <ellipse cx="18.5" cy="19" rx="16" ry="16.5" fill="none"/>
    </g>
    <g id="Ellipse_7" data-name="Ellipse 7" transform="translate(722 772)" fill="#fff" stroke="#c5c5c5" stroke-width="5">
      <circle cx="19" cy="19" r="19" stroke="none"/>
      <circle cx="19" cy="19" r="16.5" fill="none"/>
    </g>
    <g id="Ellipse_8" data-name="Ellipse 8" transform="translate(609 772)" fill="#fff" stroke="#c5c5c5" stroke-width="5">
      <circle cx="19" cy="19" r="19" stroke="none"/>
      <circle cx="19" cy="19" r="16.5" fill="none"/>
    </g>
    <g id="Ellipse_9" data-name="Ellipse 9" transform="translate(383 772)" fill="#fff" stroke="#c5c5c5" stroke-width="5">
      <circle cx="19" cy="19" r="19" stroke="none"/>
      <circle cx="19" cy="19" r="16.5" fill="none"/>
    </g>
    <g id="Ellipse_10" data-name="Ellipse 10" transform="translate(835 772)" fill="#fff" stroke="#c5c5c5" stroke-width="5">
      <circle cx="19" cy="19" r="19" stroke="none"/>
      <circle cx="19" cy="19" r="16.5" fill="none"/>
    </g>
    <text id="Driver_Mobile" data-name="Driver
Mobile" transform="translate(175 827)" fill="#242021" font-size="13" font-family="AvenirLTStd-Black, Avenir LT Std" font-weight="800"><tspan x="-19.26" y="0">Driver</tspan><tspan x="-21.307" y="15">Mobile</tspan></text>
    <line id="Line_3" data-name="Line 3" x2="75.761" transform="translate(194.857 791.211)" fill="none" stroke="#3c58a8" stroke-width="5"/>
    <line id="Line_4" data-name="Line 4" x2="76.302" transform="translate(307.415 791.211)" fill="none" stroke="#c5c5c5" stroke-width="5"/>
    <line id="Line_5" data-name="Line 5" x2="75.761" transform="translate(421.056 791.211)" fill="none" stroke="#c5c5c5" stroke-width="5"/>
    <line id="Line_6" data-name="Line 6" x2="75.761" transform="translate(533.615 791.211)" fill="none" stroke="#c5c5c5" stroke-width="5"/>
    <line id="Line_7" data-name="Line 7" x2="75.761" transform="translate(646.714 791.211)" fill="none" stroke="#c5c5c5" stroke-width="5"/>
    <line id="Line_8" data-name="Line 8" x2="75.761" transform="translate(759.814 791.211)" fill="none" stroke="#c5c5c5" stroke-width="5"/>
    <text id="Carrier_Portal" data-name="Carrier
Portal" transform="translate(288 827)" fill="#242021" font-size="13" font-family="AvenirLTStd-Black, Avenir LT Std" font-weight="800"><tspan x="-21.301" y="0">Carrier</tspan><tspan x="-18.532" y="15">Portal</tspan></text>
    <text id="Broker_Portal" data-name="Broker
Portal" transform="translate(402 827)" fill="#242021" font-size="13" font-family="AvenirLTStd-Black, Avenir LT Std" font-weight="800"><tspan x="-20.696" y="0">Broker</tspan><tspan x="-18.532" y="15">Portal</tspan></text>
    <text id="Vendor_Portal" data-name="Vendor
Portal" transform="translate(515 827)" fill="#242021" font-size="13" font-family="AvenirLTStd-Black, Avenir LT Std" font-weight="800"><tspan x="-22.263" y="0">Vendor</tspan><tspan x="-18.532" y="15">Portal</tspan></text>
    <text id="Customer_Portal" data-name="Customer
Portal" transform="translate(627 827)" fill="#242021" font-size="13" font-family="AvenirLTStd-Black, Avenir LT Std" font-weight="800"><tspan x="-29.835" y="0">Customer</tspan><tspan x="-18.532" y="15">Portal</tspan></text>
    <text id="Rapid_System" data-name="Rapid
System" transform="translate(740 827)" fill="#242021" font-size="13" font-family="AvenirLTStd-Black, Avenir LT Std" font-weight="800"><tspan x="-17.583" y="0">Rapid</tspan><tspan x="-22.386" y="15">System</tspan></text>
    <text id="Parking_Network" data-name="Parking
Network" transform="translate(853 827)" fill="#242021" font-size="13" font-family="AvenirLTStd-Black, Avenir LT Std" font-weight="800"><tspan x="-23.361" y="0">Parking</tspan><tspan x="-27.313" y="15">Network</tspan></text>
    <g id="checked" transform="translate(269.617 770.009)">
      <g id="Group_20" data-name="Group 20" transform="translate(9.351 4.948)">
        <g id="Group_19" data-name="Group 19">
          <path id="Path_97" data-name="Path 97" d="M150.473,64.763a1.484,1.484,0,0,0-2.1,0L130.568,82.52l-6.424-6.978a1.484,1.484,0,0,0-2.184,2.011l7.471,8.114a1.482,1.482,0,0,0,1.06.478h.032a1.486,1.486,0,0,0,1.048-.433l18.9-18.85A1.484,1.484,0,0,0,150.473,64.763Z" transform="translate(-121.568 -64.327)" fill="#3c58a8"/>
        </g>
      </g>
      <g id="Group_22" data-name="Group 22">
        <g id="Group_21" data-name="Group 21">
          <path id="Path_98" data-name="Path 98" d="M37.9,18.207a1.484,1.484,0,0,0-1.484,1.484A16.723,16.723,0,1,1,19.691,2.969a1.484,1.484,0,1,0,0-2.969A19.691,19.691,0,1,0,39.383,19.691,1.484,1.484,0,0,0,37.9,18.207Z" fill="#3c58a8"/>
        </g>
      </g>
    </g>
    <g id="checked-2" data-name="checked" transform="translate(157.617 770.009)">
      <g id="Group_20-2" data-name="Group 20" transform="translate(9.351 4.948)">
        <g id="Group_19-2" data-name="Group 19">
          <path id="Path_97-2" data-name="Path 97" d="M150.473,64.763a1.484,1.484,0,0,0-2.1,0L130.568,82.52l-6.424-6.978a1.484,1.484,0,0,0-2.184,2.011l7.471,8.114a1.482,1.482,0,0,0,1.06.478h.032a1.486,1.486,0,0,0,1.048-.433l18.9-18.85A1.484,1.484,0,0,0,150.473,64.763Z" transform="translate(-121.568 -64.327)" fill="#3c58a8"/>
        </g>
      </g>
      <g id="Group_22-2" data-name="Group 22">
        <g id="Group_21-2" data-name="Group 21">
          <path id="Path_98-2" data-name="Path 98" d="M37.9,18.207a1.484,1.484,0,0,0-1.484,1.484A16.723,16.723,0,1,1,19.691,2.969a1.484,1.484,0,1,0,0-2.969A19.691,19.691,0,1,0,39.383,19.691,1.484,1.484,0,0,0,37.9,18.207Z" fill="#3c58a8"/>
        </g>
      </g>
    </g>
  </g>
</svg>
